{
  "accessors": [
    {
      "bufferView": 2,
      "componentType": 5126,
      "count": 19178,
      "max": [
        65.51461791992188,
        132.13291931152344,
        110.08702850341797
      ],
      "min": [
        -65.51461791992188,
        -192.62506103515625,
        25.20219612121582
      ],
      "type": "VEC3"
    },
    {
      "bufferView": 2,
      "byteOffset": 230136,
      "componentType": 5126,
      "count": 19178,
      "max": [
        1.0,
        0.9999998211860657,
        1.0
      ],
      "min": [
        -1.0,
        -1.0,
        -1.0
      ],
      "type": "VEC3"
    },
    {
      "bufferView": 1,
      "componentType": 5126,
      "count": 19178,
      "max": [
        0.6028023362159729,
        0.9908201694488525
      ],
      "min": [
        -0.003436177968978882,
        0.279524028301239
      ],
      "type": "VEC2"
    },
    {
      "bufferView": 0,
      "componentType": 5125,
      "count": 77472,
      "type": "SCALAR"
    },
    {
      "bufferView": 2,
      "byteOffset": 460272,
      "componentType": 5126,
      "count": 12002,
      "max": [
        64.7686767578125,
        23.525264739990234,
        77.38055419921875
      ],
      "min": [
        -64.7686767578125,
        -194.71432495117188,
        23.316518783569336
      ],
      "type": "VEC3"
    },
    {
      "bufferView": 2,
      "byteOffset": 604296,
      "componentType": 5126,
      "count": 12002,
      "max": [
        1.0,
        0.9999998211860657,
        1.0
      ],
      "min": [
        -1.0,
        -1.0,
        -1.0
      ],
      "type": "VEC3"
    },
    {
      "bufferView": 1,
      "byteOffset": 153424,
      "componentType": 5126,
      "count": 12002,
      "max": [
        0.6704043745994568,
        0.3613506555557251
      ],
      "min": [
        0.4769781827926636,
        0.00462840311229229
      ],
      "type": "VEC2"
    },
    {
      "bufferView": 0,
      "byteOffset": 309888,
      "componentType": 5125,
      "count": 45807,
      "type": "SCALAR"
    },
    {
      "bufferView": 2,
      "byteOffset": 748320,
      "componentType": 5126,
      "count": 9062,
      "max": [
        72.14411926269531,
        119.20436096191406,
        83.34418487548828
      ],
      "min": [
        -72.14411926269531,
        -184.75784301757813,
        57.31602478027344
      ],
      "type": "VEC3"
    },
    {
      "bufferView": 2,
      "byteOffset": 857064,
      "componentType": 5126,
      "count": 9062,
      "max": [
        1.0,
        0.9941173791885376,
        1.0
      ],
      "min": [
        -1.0,
        -0.9871968030929565,
        -1.0
      ],
      "type": "VEC3"
    },
    {
      "bufferView": 1,
      "byteOffset": 249440,
      "componentType": 5126,
      "count": 9062,
      "max": [
        0.9901965260505676,
        0.5817698240280151
      ],
      "min": [
        0.37604331970214844,
        0.015977120026946068
      ],
      "type": "VEC2"
    },
    {
      "bufferView": 0,
      "byteOffset": 493116,
      "componentType": 5125,
      "count": 32568,
      "type": "SCALAR"
    },
    {
      "bufferView": 2,
      "byteOffset": 965808,
      "componentType": 5126,
      "count": 4866,
      "max": [
        72.21551513671875,
        119.3946304321289,
        106.65034484863281
      ],
      "min": [
        -72.21551513671875,
        -186.1104736328125,
        40.56019973754883
      ],
      "type": "VEC3"
    },
    {
      "bufferView": 2,
      "byteOffset": 1024200,
      "componentType": 5126,
      "count": 4866,
      "max": [
        1.0,
        0.9928367733955383,
        1.0
      ],
      "min": [
        -1.0,
        -0.9682552218437195,
        -1.0
      ],
      "type": "VEC3"
    },
    {
      "bufferView": 1,
      "byteOffset": 321936,
      "componentType": 5126,
      "count": 4866,
      "max": [
        0.9899136424064636,
        0.43074604868888855
      ],
      "min": [
        0.6801574230194092,
        0.012102928012609482
      ],
      "type": "VEC2"
    },
    {
      "bufferView": 0,
      "byteOffset": 623388,
      "componentType": 5125,
      "count": 22872,
      "type": "SCALAR"
    },
    {
      "bufferView": 2,
      "byteOffset": 1082592,
      "componentType": 5126,
      "count": 31292,
      "max": [
        -45.85651779174805,
        89.63042449951172,
        55.96251678466797
      ],
      "min": [
        -64.65695190429688,
        38.17156982421875,
        4.503658294677734
      ],
      "type": "VEC3"
    },
    {
      "bufferView": 2,
      "byteOffset": 1458096,
      "componentType": 5126,
      "count": 31292,
      "max": [
        1.0,
        1.0,
        1.0
      ],
      "min": [
        -1.0,
        -1.0,
        -1.0
      ],
      "type": "VEC3"
    },
    {
      "bufferView": 1,
      "byteOffset": 360864,
      "componentType": 5126,
      "count": 31292,
      "max": [
        0.9849605560302734,
        0.9954596757888794
      ],
      "min": [
        0.007662423420697451,
        0.005872843787074089
      ],
      "type": "VEC2"
    },
    {
      "bufferView": 0,
      "byteOffset": 714876,
      "componentType": 5125,
      "count": 119790,
      "type": "SCALAR"
    },
    {
      "bufferView": 2,
      "byteOffset": 1833600,
      "componentType": 5126,
      "count": 17152,
      "max": [
        72.05885314941406,
        131.45858764648438,
        103.58221435546875
      ],
      "min": [
        -72.05885314941406,
        -192.84617614746094,
        18.7758846282959
      ],
      "type": "VEC3"
    },
    {
      "bufferView": 2,
      "byteOffset": 2039424,
      "componentType": 5126,
      "count": 17152,
      "max": [
        1.0,
        1.0,
        1.0
      ],
      "min": [
        -1.0,
        -1.0,
        -1.0
      ],
      "type": "VEC3"
    },
    {
      "bufferView": 1,
      "byteOffset": 611200,
      "componentType": 5126,
      "count": 17152,
      "max": [
        0.9955242872238159,
        0.9862843155860901
      ],
      "min": [
        0.5107609629631042,
        0.3762316405773163
      ],
      "type": "VEC2"
    },
    {
      "bufferView": 0,
      "byteOffset": 1194036,
      "componentType": 5125,
      "count": 63972,
      "type": "SCALAR"
    },
    {
      "bufferView": 2,
      "byteOffset": 2245248,
      "componentType": 5126,
      "count": 10338,
      "max": [
        65.55635070800781,
        124.43617248535156,
        106.57354736328125
      ],
      "min": [
        -65.55635070800781,
        -192.36264038085938,
        17.968101501464844
      ],
      "type": "VEC3"
    },
    {
      "bufferView": 2,
      "byteOffset": 2369304,
      "componentType": 5126,
      "count": 10338,
      "max": [
        1.0,
        1.0,
        1.0
      ],
      "min": [
        -1.0,
        -0.9996199011802673,
        -1.0
      ],
      "type": "VEC3"
    },
    {
      "bufferView": 1,
      "byteOffset": 748416,
      "componentType": 5126,
      "count": 10338,
      "max": [
        0.9968387484550476,
        0.6110257506370544
      ],
      "min": [
        0.018826091662049294,
        0.008095183409750462
      ],
      "type": "VEC2"
    },
    {
      "bufferView": 0,
      "byteOffset": 1449924,
      "componentType": 5125,
      "count": 23568,
      "type": "SCALAR"
    },
    {
      "bufferView": 2,
      "byteOffset": 2493360,
      "componentType": 5126,
      "count": 31294,
      "max": [
        64.65695190429688,
        25.729427337646484,
        25.72942543029785
      ],
      "min": [
        45.85651779174805,
        -25.72942352294922,
        -25.729434967041016
      ],
      "type": "VEC3"
    },
    {
      "bufferView": 2,
      "byteOffset": 2868888,
      "componentType": 5126,
      "count": 31294,
      "max": [
        1.0,
        1.0,
        1.0
      ],
      "min": [
        -1.0,
        -1.0,
        -1.0
      ],
      "type": "VEC3"
    },
    {
      "bufferView": 1,
      "byteOffset": 831120,
      "componentType": 5126,
      "count": 31294,
      "max": [
        0.9849605560302734,
        0.9954596757888794
      ],
      "min": [
        0.007662423420697451,
        0.005872843787074089
      ],
      "type": "VEC2"
    },
    {
      "bufferView": 0,
      "byteOffset": 1544196,
      "componentType": 5125,
      "count": 119790,
      "type": "SCALAR"
    },
    {
      "bufferView": 2,
      "byteOffset": 3244416,
      "componentType": 5126,
      "count": 31292,
      "max": [
        -45.85651779174805,
        89.63042449951172,
        55.96251678466797
      ],
      "min": [
        -64.65695190429688,
        38.17156982421875,
        4.503658294677734
      ],
      "type": "VEC3"
    },
    {
      "bufferView": 2,
      "byteOffset": 3619920,
      "componentType": 5126,
      "count": 31292,
      "max": [
        1.0,
        1.0,
        1.0
      ],
      "min": [
        -1.0,
        -1.0,
        -1.0
      ],
      "type": "VEC3"
    },
    {
      "bufferView": 1,
      "byteOffset": 1081472,
      "componentType": 5126,
      "count": 31292,
      "max": [
        0.9849605560302734,
        0.9954596757888794
      ],
      "min": [
        0.007662423420697451,
        0.005872843787074089
      ],
      "type": "VEC2"
    },
    {
      "bufferView": 0,
      "byteOffset": 2023356,
      "componentType": 5125,
      "count": 119790,
      "type": "SCALAR"
    },
    {
      "bufferView": 2,
      "byteOffset": 3995424,
      "componentType": 5126,
      "count": 31294,
      "max": [
        64.65695190429688,
        25.729427337646484,
        25.72942543029785
      ],
      "min": [
        45.85651779174805,
        -25.72942352294922,
        -25.729434967041016
      ],
      "type": "VEC3"
    },
    {
      "bufferView": 2,
      "byteOffset": 4370952,
      "componentType": 5126,
      "count": 31294,
      "max": [
        1.0,
        1.0,
        1.0
      ],
      "min": [
        -1.0,
        -1.0,
        -1.0
      ],
      "type": "VEC3"
    },
    {
      "bufferView": 1,
      "byteOffset": 1331808,
      "componentType": 5126,
      "count": 31294,
      "max": [
        0.9849605560302734,
        0.9954596757888794
      ],
      "min": [
        0.007662423420697451,
        0.005872843787074089
      ],
      "type": "VEC2"
    },
    {
      "bufferView": 0,
      "byteOffset": 2502516,
      "componentType": 5125,
      "count": 119790,
      "type": "SCALAR"
    }
  ],
  "asset": {
    "extras": {
      "author": "Kai Xiang (https://sketchfab.com/kirikom9000)",
      "license": "CC-BY-4.0 (http://creativecommons.org/licenses/by/4.0/)",
      "source": "https://sketchfab.com/3d-models/lamborghini-urus-2018-32964087f5d24c3e90482724ddfc2fef",
      "title": "Lamborghini Urus 2018"
    },
    "generator": "Sketchfab-12.68.0",
    "version": "2.0"
  },
  "bufferViews": [
    {
      "buffer": 0,
      "byteLength": 2981676,
      "name": "floatBufferViews",
      "target": 34963
    },
    {
      "buffer": 0,
      "byteLength": 1582160,
      "byteOffset": 2981676,
      "byteStride": 8,
      "name": "floatBufferViews",
      "target": 34962
    },
    {
      "buffer": 0,
      "byteLength": 4746480,
      "byteOffset": 4563836,
      "byteStride": 12,
      "name": "floatBufferViews",
      "target": 34962
    }
  ],
  "buffers": [
    {
      "byteLength": 9310316,
      "uri": "scene.bin"
    }
  ],
  "extensionsUsed": [
    "KHR_materials_clearcoat",
    "KHR_materials_transmission"
  ],
  "images": [
    {
      "uri": "textures/body_baseColor.png"
    },
    {
      "uri": "textures/body_metallicRoughness.png"
    },
    {
      "uri": "textures/body_clearcoat.png"
    },
    {
      "uri": "textures/body_transmission.png"
    },
    {
      "uri": "textures/wheellight_baseColor.png"
    },
    {
      "uri": "textures/wheellight_metallicRoughness.png"
    },
    {
      "uri": "textures/wheellight_emissive.png"
    },
    {
      "uri": "textures/wheellight_clearcoat.png"
    },
    {
      "uri": "textures/glass_metallicRoughness.png"
    }
  ],
  "materials": [
    {
      "alphaMode": "BLEND",
      "extensions": {
        "KHR_materials_clearcoat": {
          "clearcoatFactor": 1.0,
          "clearcoatRoughnessFactor": 0.0,
          "clearcoatTexture": {
            "index": 2
          }
        },
        "KHR_materials_transmission": {
          "transmissionFactor": 1.0,
          "transmissionTexture": {
            "index": 3
          }
        }
      },
      "name": "body",
      "occlusionTexture": {
        "index": 1
      },
      "pbrMetallicRoughness": {
        "baseColorTexture": {
          "index": 0
        },
        "metallicRoughnessTexture": {
          "index": 1
        }
      }
    },
    {
      "emissiveFactor": [
        1.0,
        1.0,
        1.0
      ],
      "emissiveTexture": {
        "index": 6
      },
      "extensions": {
        "KHR_materials_clearcoat": {
          "clearcoatFactor": 0.7691501524,
          "clearcoatRoughnessFactor": 0.04,
          "clearcoatTexture": {
            "index": 7
          }
        }
      },
      "name": "wheellight",
      "pbrMetallicRoughness": {
        "baseColorTexture": {
          "index": 4
        },
        "metallicFactor": 0.3675685976,
        "metallicRoughnessTexture": {
          "index": 5
        }
      }
    },
    {
      "alphaMode": "BLEND",
      "doubleSided": true,
      "extensions": {
        "KHR_materials_clearcoat": {
          "clearcoatFactor": 1.0,
          "clearcoatRoughnessFactor": 0.0130525915,
          "clearcoatTexture": {
            "index": 2
          }
        },
        "KHR_materials_transmission": {
          "transmissionFactor": 1.0,
          "transmissionTexture": {
            "index": 3
          }
        }
      },
      "name": "glass",
      "pbrMetallicRoughness": {
        "baseColorTexture": {
          "index": 0
        },
        "metallicRoughnessTexture": {
          "index": 8
        }
      }
    }
  ],
  "meshes": [
    {
      "name": "yellow_body_0",
      "primitives": [
        {
          "attributes": {
            "NORMAL": 1,
            "POSITION": 0,
            "TEXCOORD_0": 2
          },
          "indices": 3,
          "material": 0,
          "mode": 4
        }
      ]
    },
    {
      "name": "silver_body_0",
      "primitives": [
        {
          "attributes": {
            "NORMAL": 5,
            "POSITION": 4,
            "TEXCOORD_0": 6
          },
          "indices": 7,
          "material": 0,
          "mode": 4
        }
      ]
    },
    {
      "name": "lights_wheel/light_0",
      "primitives": [
        {
          "attributes": {
            "NORMAL": 9,
            "POSITION": 8,
            "TEXCOORD_0": 10
          },
          "indices": 11,
          "material": 1,
          "mode": 4
        }
      ]
    },
    {
      "name": "glass_glass_0",
      "primitives": [
        {
          "attributes": {
            "NORMAL": 13,
            "POSITION": 12,
            "TEXCOORD_0": 14
          },
          "indices": 15,
          "material": 2,
          "mode": 4
        }
      ]
    },
    {
      "name": "wheel_wheel/light_0",
      "primitives": [
        {
          "attributes": {
            "NORMAL": 17,
            "POSITION": 16,
            "TEXCOORD_0": 18
          },
          "indices": 19,
          "material": 1,
          "mode": 4
        }
      ]
    },
    {
      "name": "gloss_black_body_0",
      "primitives": [
        {
          "attributes": {
            "NORMAL": 21,
            "POSITION": 20,
            "TEXCOORD_0": 22
          },
          "indices": 23,
          "material": 0,
          "mode": 4
        }
      ]
    },
    {
      "name": "matt_black_body_0",
      "primitives": [
        {
          "attributes": {
            "NORMAL": 25,
            "POSITION": 24,
            "TEXCOORD_0": 26
          },
          "indices": 27,
          "material": 0,
          "mode": 4
        }
      ]
    },
    {
      "name": "wheel001_wheel/light_0",
      "primitives": [
        {
          "attributes": {
            "NORMAL": 29,
            "POSITION": 28,
            "TEXCOORD_0": 30
          },
          "indices": 31,
          "material": 1,
          "mode": 4
        }
      ]
    },
    {
      "name": "wheel002_wheel/light_0",
      "primitives": [
        {
          "attributes": {
            "NORMAL": 33,
            "POSITION": 32,
            "TEXCOORD_0": 34
          },
          "indices": 35,
          "material": 1,
          "mode": 4
        }
      ]
    },
    {
      "name": "wheel003_wheel/light_0",
      "primitives": [
        {
          "attributes": {
            "NORMAL": 37,
            "POSITION": 36,
            "TEXCOORD_0": 38
          },
          "indices": 39,
          "material": 1,
          "mode": 4
        }
      ]
    }
  ],
  "nodes": [
    {
      "children": [
        1
      ],
      "matrix": [
        1.0,
        0.0,
        0.0,
        0.0,
        0.0,
        2.220446049250313e-16,
        -1.0,
        0.0,
        0.0,
        1.0,
        2.220446049250313e-16,
        0.0,
        0.0,
        0.0,
        0.0,
        1.0
      ],
      "name": "Sketchfab_model"
    },
    {
      "children": [
        2
      ],
      "matrix": [
        1.0,
        0.0,
        0.0,
        0.0,
        0.0,
        0.0,
        1.0,
        0.0,
        0.0,
        -1.0,
        0.0,
        0.0,
        0.0,
        0.0,
        0.0,
        1.0
      ],
      "name": "05035d7ca5ed43e8819f9015d002fd93.fbx"
    },
    {
      "children": [
        3,
        5,
        7,
        9,
        11,
        14,
        16,
        18,
        20,
        23
      ],
      "name": "RootNode"
    },
    {
      "children": [
        4
      ],
      "matrix": [
        1.0,
        0.0,
        0.0,
        0.0,
        0.0,
        2.220446049250313e-16,
        -1.0,
        0.0,
        0.0,
        1.0,
        2.220446049250313e-16,
        0.0,
        0.0,
        0.0,
        0.0,
        1.0
      ],
      "name": "yellow"
    },
    {
      "mesh": 0,
      "name": "yellow_body_0"
    },
    {
      "children": [
        6
      ],
      "matrix": [
        1.0,
        0.0,
        0.0,
        0.0,
        0.0,
        2.220446049250313e-16,
        -1.0,
        0.0,
        0.0,
        1.0,
        2.220446049250313e-16,
        0.0,
        0.0,
        0.0,
        0.0,
        1.0
      ],
      "name": "silver"
    },
    {
      "mesh": 1,
      "name": "silver_body_0"
    },
    {
      "children": [
        8
      ],
      "matrix": [
        1.0,
        0.0,
        0.0,
        0.0,
        0.0,
        2.220446049250313e-16,
        -1.0,
        0.0,
        0.0,
        1.0,
        2.220446049250313e-16,
        0.0,
        0.0,
        0.0,
        0.0,
        1.0
      ],
      "name": "lights"
    },
    {
      "mesh": 2,
      "name": "lights_wheel/light_0"
    },
    {
      "children": [
        10
      ],
      "matrix": [
        1.0,
        0.0,
        0.0,
        0.0,
        0.0,
        2.220446049250313e-16,
        -1.0,
        0.0,
        0.0,
        1.0,
        2.220446049250313e-16,
        0.0,
        0.0,
        0.0,
        0.0,
        1.0
      ],
      "name": "glass"
    },
    {
      "mesh": 3,
      "name": "glass_glass_0"
    },
    {
      "children": [
        12
      ],
      "matrix": [
        1.0,
        0.0,
        0.0,
        0.0,
        0.0,
        2.220446049250313e-16,
        -1.0,
        0.0,
        0.0,
        1.0,
        2.220446049250313e-16,
        0.0,
        0.0,
        30.23308753967285,
        -63.900997161865234,
        1.0
      ],
      "name": "wheel"
    },
    {
      "children": [
        13
      ],
      "matrix": [
        1.0,
        0.0,
        -0.0,
        0.0,
        0.0,
        1.0,
        0.0,
        0.0,
        0.0,
        0.0,
        1.0,
        0.0,
        0.0,
        -63.900997161865234,
        -30.23308753967285,
        1.0
      ],
      "name": "Object_12"
    },
    {
      "mesh": 4,
      "name": "wheel_wheel/light_0"
    },
    {
      "children": [
        15
      ],
      "matrix": [
        1.0,
        0.0,
        0.0,
        0.0,
        0.0,
        2.220446049250313e-16,
        -1.0,
        0.0,
        0.0,
        1.0,
        2.220446049250313e-16,
        0.0,
        0.0,
        0.0,
        0.0,
        1.0
      ],
      "name": "gloss_black"
    },
    {
      "mesh": 5,
      "name": "gloss_black_body_0"
    },
    {
      "children": [
        17
      ],
      "matrix": [
        1.0,
        0.0,
        0.0,
        0.0,
        0.0,
        2.220446049250313e-16,
        -1.0,
        0.0,
        0.0,
        1.0,
        2.220446049250313e-16,
        0.0,
        0.0,
        0.0,
        0.0,
        1.0
      ],
      "name": "matt_black"
    },
    {
      "mesh": 6,
      "name": "matt_black_body_0"
    },
    {
      "children": [
        19
      ],
      "matrix": [
        1.0,
        0.0,
        0.0,
        0.0,
        0.0,
        2.220446049250313e-16,
        -1.0,
        0.0,
        0.0,
        1.0,
        2.220446049250313e-16,
        0.0,
        0.0,
        30.23308753967285,
        -63.900997161865234,
        1.0
      ],
      "name": "wheel001"
    },
    {
      "mesh": 7,
      "name": "wheel001_wheel/light_0"
    },
    {
      "children": [
        21
      ],
      "matrix": [
        1.0,
        0.0,
        0.0,
        0.0,
        0.0,
        2.220446049250313e-16,
        -1.0,
        0.0,
        0.0,
        1.0,
        2.220446049250313e-16,
        0.0,
        0.0,
        30.23308753967285,
        129.04747009277344,
        1.0
      ],
      "name": "wheel002"
    },
    {
      "children": [
        22
      ],
      "matrix": [
        1.0,
        0.0,
        -0.0,
        0.0,
        0.0,
        1.0,
        0.0,
        0.0,
        0.0,
        0.0,
        1.0,
        0.0,
        0.0,
        -63.900997161865234,
        -30.23308753967285,
        1.0
      ],
      "name": "Object_21"
    },
    {
      "mesh": 8,
      "name": "wheel002_wheel/light_0"
    },
    {
      "children": [
        24
      ],
      "matrix": [
        1.0,
        0.0,
        0.0,
        0.0,
        0.0,
        2.220446049250313e-16,
        -1.0,
        0.0,
        0.0,
        1.0,
        2.220446049250313e-16,
        0.0,
        0.0,
        30.23308753967285,
        129.04747009277344,
        1.0
      ],
      "name": "wheel003"
    },
    {
      "mesh": 9,
      "name": "wheel003_wheel/light_0"
    }
  ],
  "samplers": [
    {
      "magFilter": 9729,
      "minFilter": 9987,
      "wrapS": 10497,
      "wrapT": 10497
    }
  ],
  "scene": 0,
  "scenes": [
    {
      "name": "Sketchfab_Scene",
      "nodes": [
        0
      ]
    }
  ],
  "textures": [
    {
      "sampler": 0,
      "source": 0
    },
    {
      "sampler": 0,
      "source": 1
    },
    {
      "sampler": 0,
      "source": 2
    },
    {
      "sampler": 0,
      "source": 3
    },
    {
      "sampler": 0,
      "source": 4
    },
    {
      "sampler": 0,
      "source": 5
    },
    {
      "sampler": 0,
      "source": 6
    },
    {
      "sampler": 0,
      "source": 7
    },
    {
      "sampler": 0,
      "source": 8
    }
  ]
}
